<svg width="122" height="43" viewBox="0 0 122 43" fill="none" xmlns="http://www.w3.org/2000/svg">
<g clip-path="url(#clip0_47_10)">
<path fill-rule="evenodd" clip-rule="evenodd" d="M79.2552 42.3779V37.6223C79.2552 36.8639 78.8527 36.436 78.3638 36.436C77.8749 36.436 77.4256 36.8639 77.4256 37.6223V42.3779H74.0528V37.6223C74.0528 36.8639 73.6503 36.436 73.1589 36.436C72.6676 36.436 72.2232 36.8639 72.2232 37.6223V42.3779H68.8506V33.3916H72.2232V34.5917C72.5079 34.16 72.8772 33.808 73.3024 33.5628C73.7276 33.3176 74.1974 33.1859 74.6751 33.1778C75.7763 33.1778 76.6233 33.7029 77.0702 34.6584C77.7541 33.8029 78.5713 33.1778 79.8207 33.1778C81.549 33.1778 82.628 34.4278 82.628 36.4528V42.3779H79.2552ZM63.8037 42.5916C61.142 42.5916 59.2556 40.4527 59.2556 37.9166V37.8832C59.2556 35.3499 61.1568 33.1778 63.8333 33.1778C66.5098 33.1778 68.3814 35.3167 68.3814 37.8529V37.8832C68.3814 40.4193 66.4777 42.5916 63.8136 42.5916H63.8037ZM65.1395 37.8832C65.1457 37.6796 65.1161 37.4768 65.0522 37.2862C64.9883 37.0955 64.8914 36.9209 64.7672 36.7727C64.643 36.6244 64.4937 36.5052 64.3283 36.4222C64.163 36.3391 63.9847 36.294 63.8037 36.289C63.6257 36.2921 63.45 36.3354 63.2872 36.4162C63.1243 36.4971 62.9776 36.6138 62.8556 36.7596C62.7336 36.9055 62.6388 37.0773 62.5768 37.265C62.5149 37.4528 62.4872 37.6528 62.4951 37.8529V37.8832C62.4892 38.0871 62.5192 38.2903 62.5833 38.4811C62.6475 38.6719 62.7445 38.8467 62.8688 38.9952C62.9932 39.1436 63.1424 39.2629 63.3079 39.3462C63.4734 39.4295 63.6521 39.4751 63.8333 39.4805C64.0111 39.4769 64.1865 39.4334 64.3491 39.3524C64.5117 39.2714 64.658 39.1545 64.7797 39.0087C64.9015 38.8629 64.9962 38.6912 65.058 38.5036C65.1197 38.316 65.1474 38.1164 65.1395 37.9166V37.8832ZM55.4754 39.3972C56.068 39.3972 56.4088 39.0667 56.7347 38.4917L59.1816 40.039C58.4557 41.5362 57.2235 42.4918 55.2976 42.4918C54.2675 42.5032 53.2686 42.0946 52.4854 41.3416C52.5012 41.2006 52.5094 41.0586 52.5101 40.9165C52.5147 40.3267 52.3822 39.7459 52.1258 39.2314C51.8694 38.7169 51.498 38.2867 51.0483 37.9833C51.0483 37.9278 51.0483 37.8723 51.0483 37.8168V37.7861C51.0483 35.2695 52.8261 33.0804 55.4656 33.0804C57.2433 33.0804 58.505 34.1 59.1272 35.5639L56.71 37.0778C56.4285 36.5028 56.073 36.1751 55.5249 36.1751C54.8138 36.1751 54.2903 36.8639 54.2903 37.7528V37.7861C54.2755 38.7222 54.8088 39.3972 55.4754 39.3972ZM49.9422 42.3722C49.6128 42.3661 49.2924 42.2509 49.0211 42.0407C48.7498 41.8304 48.5398 41.5346 48.4175 41.1905C48.2951 40.8464 48.2658 40.4693 48.3333 40.1065C48.4008 39.7438 48.5622 39.4114 48.797 39.1514C49.0318 38.8915 49.3297 38.7153 49.6532 38.6452C49.9767 38.5751 50.3113 38.6141 50.6152 38.7573C50.919 38.9004 51.1786 39.1415 51.3611 39.4501C51.5436 39.7586 51.641 40.1211 51.641 40.4917C51.6394 40.7408 51.5941 40.987 51.5078 41.2163C51.4215 41.4456 51.2959 41.6536 51.1381 41.8283C50.9804 42.0029 50.7936 42.1407 50.5884 42.2341C50.3832 42.3274 50.1635 42.3744 49.9422 42.3722Z" fill="#202E3A"/>
<path d="M115.242 15.1278L121.044 6.65276H112.664L108.694 13.0639V3.92775C107.876 3.78073 107.12 3.34817 106.532 2.69118C105.945 2.03419 105.556 1.1861 105.42 0.266724H100.993V15.5445C100.376 10.2084 97.3165 6.15553 91.4796 6.15553C87.0476 6.15553 83.6305 9.15839 82.4206 13.5251C82.3441 8.96672 79.9218 6.15553 76.0157 6.15553C73.1664 6.15553 71.3022 7.60563 69.7417 9.58896C68.722 7.36674 66.7789 6.15553 64.2777 6.15553C61.7765 6.15553 59.8679 7.71944 58.6803 9.4361V6.65833H50.9743V15.825C50.3866 10.4333 47.3274 6.32223 41.4535 6.32223C38.3646 6.32223 35.7746 7.78605 34.0709 10.1499V24.3972C35.8585 26.775 38.6634 28.1583 42.0979 28.1583C46.0978 28.1583 48.7102 26.2863 50.5398 23.614L46.4041 19.9111C45.1819 21.325 44.0312 22.0499 42.6411 22.0499C40.9794 22.0499 39.6782 21.0945 39.1474 19.2723H50.9743V27.5083H58.6753V16.4778C58.6753 14.7195 59.6925 13.7278 60.8135 13.7278C61.9344 13.7278 62.8481 14.7195 62.8481 16.4778V27.5083H70.5493V16.4778C70.5493 14.7195 71.5666 13.7278 72.6875 13.7278C73.8085 13.7278 74.7219 14.7195 74.7219 16.4778V27.5083H82.423V20.8417C83.6724 25.2583 87.2673 28.014 92.119 28.014C96.1214 28.014 98.7337 26.1444 100.566 23.4722L96.4276 19.7695C95.1931 21.1834 94.0524 21.9083 92.6623 21.9083C90.9981 21.9083 89.6995 20.9527 89.1687 19.1305H100.988V27.5083H108.689V23.9805L110.218 21.7583L112.896 27.4834H121.141L115.242 15.1278ZM39.051 15.4333C39.298 13.5249 40.2041 12.3027 41.493 12.3027C42.8485 12.3027 43.9003 13.4472 44.0682 15.4333H39.051ZM89.0698 15.2806C89.3167 13.3722 90.223 12.15 91.5143 12.15C92.8698 12.15 93.9215 13.2944 94.0919 15.2806H89.0698Z" fill="#BE1F54"/>
<path d="M32.6536 28.4197V3.19466C28.4093 3.42521 27.2538 0.000213623 27.2538 0.000213623C24.4786 8.92521 18.417 4.16688 18.417 4.16688L18.4045 17.3807C18.4045 19.1307 17.4861 20.1224 16.3651 20.1224C15.2442 20.1224 14.2245 19.1307 14.2245 17.3807V9.00575V0.161211H0.00743685V9.00575C-0.017254 12.5363 0.291406 23.8585 5.09378 26.8252C11.1035 30.5391 19.0194 25.2279 19.0194 25.2279V30.9753C18.9577 35.4892 6.23199 31.6141 6.23199 31.6141V41.1945C9.40477 42.275 15.6145 42.4724 15.6145 42.4724H17.6046C34.0512 42.4418 32.6536 28.4197 32.6536 28.4197Z" fill="#BE1F54"/>
</g>
<defs>
<clipPath id="clip0_47_10">
<rect width="121.148" height="42.5917" fill="white"/>
</clipPath>
</defs>
</svg>
